<svg xmlns="http://www.w3.org/2000/svg" xmlns:xlink="http://www.w3.org/1999/xlink" width="100" height="100"><defs><linearGradient id="c" x1="17.027%" x2="82.973%" y1="-8.605%" y2="108.599%"><stop offset="0%" stop-color="#9EB5D7"/><stop offset="12%" stop-color="#B1C2DD"/><stop offset="34%" stop-color="#CCD5E6"/><stop offset="56%" stop-color="#E0E3ED"/><stop offset="78%" stop-color="#ECEBF1"/><stop offset="100%" stop-color="#F0EEF2"/></linearGradient><circle id="a" cx="50" cy="50" r="50"/></defs><g fill="none" fill-rule="evenodd"><mask id="b" fill="#fff"><use xlink:href="#a"/></mask><use fill="#D8D8D8" xlink:href="#a"/><g fill-rule="nonzero" mask="url(#b)"><path fill="url(#c)" d="M.156.531h101.725v104.375H.156z" transform="translate(-.625 -5)"/><path fill="#A183BC" stroke="#A183BC" stroke-width="1.25" d="M31.35 50.306c-.969-4.906 1.137-7.881 1.975-8.718 4.254-4.503 4.132-11.579-.275-15.932-4.475-4.187-11.737-4.187-15.931.282-11.457 12.018-11.457 31.58 0 43.593a11.194 11.194 0 008.125 3.356 12.019 12.019 0 007.825-3.075c4.468-4.193 4.468-11.456.275-15.93a8.181 8.181 0 01-1.956-3.35l-.038-.226z"/><path fill="#F59080" d="M23.494 40.688c.143.674.831 4.687-2.888 3.2a1.55 1.55 0 00-2.025.88 1.544 1.544 0 001.325 2.082c1.969.15 4.594.762 4.513 2.938-.088 2.5-4.375 4.206-6.832 5a1.531 1.531 0 00-.924 2.106l.037.081a1.537 1.537 0 002.238.625c1.712-1.125 4.712-2.7 7.687-2.413 2.975.288 3.65 2.407 3.794 3.876.075.8.753 1.407 1.556 1.393h.625a1.537 1.537 0 001.45-1.987c-.862-2.857-1.944-7.931.925-9.007 3.169-1.187 6.675 1 8 2.894.369.532.944 2.5.944 10.088l.044 52.731c.01.842.695 1.519 1.537 1.519h2.337a1.531 1.531 0 001.538-1.563s-.506-55.587-.475-58.993c.063-6.994-4.375-11.075-10.4-11.907-5.394-.744-10.131-5.806-11.913-7.937a1.537 1.537 0 00-1.875-.388l-.943.469A1.544 1.544 0 0023 38.25c.242.71.387 1.45.431 2.2.014.081.035.16.063.237z"/><path fill="#A183BC" stroke="#A183BC" stroke-width="1.25" d="M68.588 50.531a8.181 8.181 0 01-1.957 3.35c-4.194 4.475-4.194 11.738.281 15.931a12.019 12.019 0 007.825 3.076 11.194 11.194 0 008.126-3.357c11.456-12.012 11.456-31.575 0-43.594-4.194-4.468-11.463-4.468-15.932-.28-4.412 4.349-4.537 11.428-.281 15.93.837.838 2.944 3.813 1.981 8.72l-.043.224z"/><path fill="#F59080" d="M76.463 40.688c-.138.674-.832 4.687 2.887 3.2a1.544 1.544 0 012.025.88 1.538 1.538 0 01-1.325 2.082c-1.969.15-4.587.762-4.513 2.938.094 2.5 4.375 4.206 6.832 5a1.531 1.531 0 01.925 2.106l-.038.081a1.537 1.537 0 01-2.237.625c-1.713-1.125-4.713-2.7-7.681-2.413-2.97.288-3.65 2.407-3.8 3.876a1.537 1.537 0 01-1.557 1.393h-.625a1.544 1.544 0 01-1.45-1.987c.869-2.857 1.944-7.931-.919-9.007-3.168-1.187-6.674 1-8.006 2.894-.369.532-.944 2.5-.944 10.088l-.043 52.731a1.538 1.538 0 01-1.538 1.519h-2.331a1.544 1.544 0 01-1.544-1.563s.506-55.587.481-58.993c-.068-6.994 4.376-11.075 10.394-11.907 5.4-.744 10.132-5.806 11.913-7.937a1.537 1.537 0 011.875-.388l.944.469a1.544 1.544 0 01.768 1.875 8.4 8.4 0 00-.425 2.2c-.015.081-.038.16-.069.237z"/><path fill="#F59080" d="M28 40.487a.588.588 0 01.913-.712 20.681 20.681 0 003.58 2.863 18.375 18.375 0 004.9 1.987c.938.231 6.876.675 9.682 5.625a.587.587 0 01-.844.775 23.4 23.4 0 00-10-4.044c-4.075-.531-6.744-3.856-8.231-6.494zm44.106.401a.588.588 0 00-.912-.72 20.106 20.106 0 01-3.582 2.863 18.319 18.319 0 01-4.9 1.988c-.943.237-6.875.675-9.68 5.656a.581.581 0 00.843.769 23.3 23.3 0 0110-4.038c4.069-.531 6.744-3.919 8.231-6.518z" opacity=".77" style="mix-blend-mode:multiply"/></g></g></svg>